<mxfile host="app.diagrams.net" modified="2021-03-30T17:12:37.347Z" agent="5.0 (Macintosh; Intel Mac OS X 11_2_3) AppleWebKit/537.36 (KHTML, like Gecko) Chrome/89.0.4389.90 Safari/537.36" etag="VoJ30o0nmMhV79jI_Ohv" version="14.5.3" type="github">
  <diagram id="EtZiyuKKwU_tr7Zd5l9W" name="Page-1">
    <mxGraphModel dx="818" dy="548" grid="1" gridSize="10" guides="1" tooltips="1" connect="1" arrows="1" fold="1" page="1" pageScale="1" pageWidth="827" pageHeight="1169" math="0" shadow="0">
      <root>
        <mxCell id="0" />
        <mxCell id="1" parent="0" />
        <mxCell id="9HyxouTBZqL0NcBin7FY-5" style="edgeStyle=orthogonalEdgeStyle;rounded=0;orthogonalLoop=1;jettySize=auto;html=1;exitX=1;exitY=0.5;exitDx=0;exitDy=0;entryX=0;entryY=0.5;entryDx=0;entryDy=0;" edge="1" parent="1" source="9HyxouTBZqL0NcBin7FY-2" target="9HyxouTBZqL0NcBin7FY-3">
          <mxGeometry relative="1" as="geometry" />
        </mxCell>
        <mxCell id="9HyxouTBZqL0NcBin7FY-2" value="&lt;font style=&quot;line-height: 140%&quot; face=&quot;Comic Sans MS&quot; size=&quot;1&quot;&gt;&lt;b style=&quot;font-size: 21px ; line-height: 160%&quot;&gt;Propose Feature&lt;/b&gt;&lt;/font&gt;" style="rounded=1;whiteSpace=wrap;html=1;strokeWidth=2;fillWeight=4;hachureGap=8;hachureAngle=45;sketch=1;fillStyle=auto;gradientDirection=north;fillColor=#1EB6FF;" vertex="1" parent="1">
          <mxGeometry x="60" y="160" width="150" height="110" as="geometry" />
        </mxCell>
        <mxCell id="9HyxouTBZqL0NcBin7FY-6" style="edgeStyle=orthogonalEdgeStyle;rounded=0;orthogonalLoop=1;jettySize=auto;html=1;exitX=1;exitY=0.5;exitDx=0;exitDy=0;" edge="1" parent="1" source="9HyxouTBZqL0NcBin7FY-3" target="9HyxouTBZqL0NcBin7FY-4">
          <mxGeometry relative="1" as="geometry" />
        </mxCell>
        <mxCell id="9HyxouTBZqL0NcBin7FY-3" value="&lt;font face=&quot;Comic Sans MS&quot; style=&quot;font-size: 21px&quot;&gt;&lt;b&gt;Write a PolyFill / Transpiler Plugin&lt;/b&gt;&lt;/font&gt;" style="rounded=1;whiteSpace=wrap;html=1;strokeWidth=2;fillWeight=4;hachureGap=8;hachureAngle=45;sketch=1;fillColor=#1EB6FF;" vertex="1" parent="1">
          <mxGeometry x="263" y="160" width="150" height="110" as="geometry" />
        </mxCell>
        <mxCell id="9HyxouTBZqL0NcBin7FY-4" value="&lt;font style=&quot;font-size: 21px&quot; face=&quot;Comic Sans MS&quot;&gt;&lt;b&gt;Use Feature&lt;/b&gt;&lt;/font&gt;" style="rounded=1;whiteSpace=wrap;html=1;strokeWidth=2;fillWeight=4;hachureGap=8;hachureAngle=45;sketch=1;fillColor=#1EB4FC;" vertex="1" parent="1">
          <mxGeometry x="470" y="160" width="150" height="110" as="geometry" />
        </mxCell>
        <mxCell id="9HyxouTBZqL0NcBin7FY-16" value="Total Time == Days" style="endArrow=none;html=1;rounded=0;" edge="1" parent="1">
          <mxGeometry relative="1" as="geometry">
            <mxPoint x="60" y="300" as="sourcePoint" />
            <mxPoint x="620" y="300" as="targetPoint" />
          </mxGeometry>
        </mxCell>
        <mxCell id="9HyxouTBZqL0NcBin7FY-17" value="" style="resizable=0;html=1;align=left;verticalAlign=bottom;" connectable="0" vertex="1" parent="9HyxouTBZqL0NcBin7FY-16">
          <mxGeometry x="-1" relative="1" as="geometry" />
        </mxCell>
        <mxCell id="9HyxouTBZqL0NcBin7FY-18" value="" style="resizable=0;html=1;align=right;verticalAlign=bottom;" connectable="0" vertex="1" parent="9HyxouTBZqL0NcBin7FY-16">
          <mxGeometry x="1" relative="1" as="geometry" />
        </mxCell>
      </root>
    </mxGraphModel>
  </diagram>
</mxfile>
